PathFileType  4	(X/Y/Z) C:\Users\antoi\Documents\MyRepositories\mobilecap\ResultsAnalysis
DataRate	CameraRate	NumFrames	NumMarkers	Units	OrigDataRate	OrigDataStartFrame	OrigNumFrames
100.0	100.0	4	51	mm	100.0	34	134
Frame#	Time	r_knee			r_shank_antsup			r_ankle			r_calc			r_5meta			r_toe			L_knee			L_shank_antsup			L_ankle			L_calc			L_5meta			L_toe			r_sh2			r_sh3			r_sh4			L_sh2			L_sh3			r_thigh1			r_thigh2			r_thigh3			r_thigh4			r_thigh5			L_thigh1			L_thigh2			L_thigh3			L_thigh4			r.ASIS			r.PSIS			L.ASIS			L.PSIS			C7			R_Shoulder			L_Shoulder			R_Sternum			L_Sternum			R_humerus			R_elbow_med			R_elbow_lat			R_forearm			R_wrist_radius			R_wrist_ulna			L_humerus			L_elbow_med			L_elbow_lat			L_forearm			L_wrist_radius			L_wrist_ulna			R_HJC			L_HJC			R_HJC_reg			L_HJC_reg			
		X1	Y1	Z1	X2	Y2	Z2	X3	Y3	Z3	X4	Y4	Z4	X5	Y5	Z5	X6	Y6	Z6	X7	Y7	Z7	X8	Y8	Z8	X9	Y9	Z9	X10	Y10	Z10	X11	Y11	Z11	X12	Y12	Z12	X13	Y13	Z13	X14	Y14	Z14	X15	Y15	Z15	X16	Y16	Z16	X17	Y17	Z17	X18	Y18	Z18	X19	Y19	Z19	X20	Y20	Z20	X21	Y21	Z21	X22	Y22	Z22	X23	Y23	Z23	X24	Y24	Z24	X25	Y25	Z25	X26	Y26	Z26	X27	Y27	Z27	X28	Y28	Z28	X29	Y29	Z29	X30	Y30	Z30	X31	Y31	Z31	X32	Y32	Z32	X33	Y33	Z33	X34	Y34	Z34	X35	Y35	Z35	X36	Y36	Z36	X37	Y37	Z37	X38	Y38	Z38	X39	Y39	Z39	X40	Y40	Z40	X41	Y41	Z41	X42	Y42	Z42	X43	Y43	Z43	X44	Y44	Z44	X45	Y45	Z45	X46	Y46	Z46	X47	Y47	Z47	X48	Y48	Z48	X49	Y49	Z49	X50	Y50	Z50	X51	Y51	Z51	

34	0.33000000	303.60431	494.20144	-18.44587	333.17644	423.25123	-40.25820	233.41900	97.11908	-70.13976	165.42653	68.51217	-109.85307	333.51290	44.53928	-30.01821	385.08978	70.57270	-83.99259	480.30622	536.68542	-314.77527	491.06944	438.22207	-322.34235	354.38724	160.55785	-270.13966	290.75779	145.65567	-206.95247	425.14334	67.46426	-321.15106	485.52565	85.72465	-281.81384	300.58776	311.20952	-26.10655	257.05557	439.30917	-8.50358	228.65935	330.64386	-15.86775	409.99263	473.70869	-306.77548	372.70318	357.44285	-304.79253	398.25193	804.02595	27.60879	384.29475	692.50528	11.12399	276.03648	695.59523	35.72680	288.90028	810.89313	60.20435	329.16709	673.46267	41.91747	387.94287	787.17857	-339.45075	460.08312	669.66026	-332.53673	300.13608	732.55587	-284.98386	378.55698	614.24026	-283.69879	415.19944	977.11178	-8.93708	217.67141	1019.56458	-67.42977	389.79273	964.58527	-257.97874	198.17341	1020.30751	-166.02824	206.31752	1422.62488	-130.48756	336.50672	1396.78856	27.78861	250.74590	1387.85202	-318.06019	347.29349	1398.62436	-133.00758	343.94110	1399.39175	-177.02055	382.26063	1268.13803	84.85338	380.54272	1048.11952	45.06454	403.94484	1068.59664	110.10138	526.36771	996.63002	101.61405	621.34037	901.14652	85.28932	605.13604	880.93135	110.32963	251.91293	1267.60884	-373.99300	228.44142	1041.37783	-281.25731	217.68735	1055.86108	-358.14378	266.10354	954.18392	-383.22957	272.26610	796.60913	-401.04444	239.32296	799.67252	-410.00172	333.34135	899.23082	-22.10062	310.49029	893.86737	-227.23186	345.33437	899.24719	-30.93324	313.24389	900.47088	-193.21394	
35	0.34000000	306.69945	494.23447	-18.81417	335.46568	423.11228	-40.51533	233.62046	97.39940	-70.31100	165.54301	68.64023	-109.84003	333.50897	44.54496	-29.92333	385.29320	70.46710	-83.93526	493.16980	536.72959	-314.80269	508.22231	438.82598	-322.88416	390.99332	151.61156	-272.02963	329.22098	132.23937	-208.20686	467.02930	63.84027	-324.63857	526.73036	85.74993	-285.97236	302.12834	311.33073	-26.27371	259.46650	439.76476	-8.88276	230.30868	331.31718	-16.15184	425.39154	468.39724	-306.85568	395.88025	350.49219	-305.77748	406.58826	802.44710	26.51900	390.60785	691.31975	10.06392	282.70275	696.00883	34.82184	297.52688	810.97437	59.49680	335.50443	673.02808	40.81785	400.68061	787.60623	-340.14857	472.85314	670.18038	-332.63482	311.67934	732.53757	-287.30459	390.75871	614.26179	-285.59122	425.65347	976.04621	-9.11449	228.49732	1019.13461	-68.51486	401.14898	964.15172	-258.29156	209.32468	1020.08370	-167.10009	218.01335	1422.28598	-130.36540	348.82448	1396.36215	27.30497	261.39441	1387.40786	-318.00709	358.83725	1398.16795	-133.51616	355.34622	1398.91347	-177.47339	395.26080	1267.77962	83.72498	393.80955	1047.85305	43.63105	418.02896	1068.21082	108.33128	541.52848	998.20757	97.19295	637.77734	904.44045	78.38922	622.28541	883.77582	103.61838	260.04173	1267.12344	-373.52978	234.85592	1041.88893	-278.83811	222.07271	1056.47815	-355.64442	265.55741	953.16644	-381.68149	263.46096	794.72191	-398.94016	230.68816	800.10101	-407.59481	343.61789	898.41319	-22.84375	321.62528	893.52726	-228.07993	355.72060	898.50165	-31.46396	324.14044	900.06523	-193.85276	
36	0.35000000	310.04278	494.21070	-19.16687	337.96721	422.90911	-40.77400	233.86553	97.67710	-70.45251	165.66540	68.77774	-109.80540	333.48004	44.54076	-29.80794	385.48988	70.29984	-83.88574	505.02705	535.86000	-314.52888	524.55460	439.13111	-323.29091	428.15215	143.40002	-274.10342	368.70188	119.59031	-209.66629	509.25321	61.31324	-328.18864	567.89548	86.97758	-290.26094	303.83142	311.41947	-26.41056	262.12111	440.19897	-9.21244	232.19019	331.96220	-16.39563	440.28549	462.58808	-306.54418	418.99513	343.41573	-306.51213	415.00778	800.80624	25.37952	397.11714	690.01846	8.94678	289.52587	696.30553	33.92389	306.23030	810.94034	58.72776	341.97715	672.51974	39.74755	412.97722	787.35175	-340.81199	484.88077	669.83918	-332.64099	322.97480	732.16516	-289.29015	402.11115	613.74597	-287.31769	436.16982	974.71160	-9.37226	239.39806	1018.47002	-69.70065	412.61522	963.27922	-258.68540	220.56411	1019.53439	-168.28451	229.73655	1421.62309	-130.31785	361.14072	1395.55642	26.78586	272.14815	1386.69723	-318.03220	370.46785	1397.38811	-134.07339	366.83368	1398.12520	-177.97350	408.21889	1267.05701	82.55978	406.96817	1047.17432	42.31774	432.02363	1067.49570	106.58821	556.53566	999.49576	92.86423	653.97541	907.49513	71.61405	639.25074	886.37195	97.04447	268.16957	1266.47655	-373.09392	241.21077	1042.16046	-276.64207	226.27204	1057.02187	-353.27305	265.06103	952.35279	-380.21006	255.25679	793.48412	-396.74840	222.73945	801.00691	-405.15458	353.94329	897.34537	-23.61311	332.82473	892.79614	-228.94892	366.14169	897.53064	-32.01098	335.09658	899.28479	-194.51685	
37	0.36000000	313.64771	494.12541	-19.51083	340.70261	422.64298	-41.02895	234.15047	97.95951	-70.55720	165.78879	68.91823	-109.75668	333.43359	44.51605	-29.67997	385.67676	70.06715	-83.84544	515.88293	534.09613	-313.93610	540.01805	439.15345	-323.54771	465.68106	136.16249	-276.40001	409.01033	107.98271	-211.39780	551.67924	60.10908	-331.77528	608.81598	89.64445	-294.63429	305.69771	311.46779	-26.51294	265.02065	440.61047	-9.50599	234.29324	332.58690	-16.60440	454.68448	456.39418	-305.78132	441.91146	336.31709	-306.88809	423.55371	799.10115	24.24282	403.85869	688.60304	7.79597	296.52185	696.50199	33.04475	315.03735	810.80551	57.89848	348.60574	671.94220	38.72081	424.80293	786.38442	-341.41439	496.11603	668.59723	-332.55224	333.99355	731.39173	-290.88847	412.57344	612.66147	-288.75698	446.80628	973.13710	-9.74947	250.39555	1017.58750	-70.99446	424.19080	961.98721	-259.18736	231.90067	1018.67460	-169.58832	241.49694	1420.66235	-130.35412	373.44778	1394.38660	26.22801	283.01499	1385.74338	-318.14305	382.17200	1396.30050	-134.68613	378.40563	1397.04869	-178.53499	421.12239	1265.97862	81.36182	420.03143	1046.08904	41.08681	445.92541	1066.45632	104.85391	571.37085	1000.47203	88.63628	669.91044	910.26975	64.99947	656.00310	888.68310	90.63562	276.30996	1265.70245	-372.70575	247.44789	1042.22557	-274.69462	230.27461	1057.51250	-351.02363	264.62551	951.72945	-378.83850	247.75224	792.84990	-394.49588	215.54930	802.26519	-402.66331	364.36336	896.05340	-24.42969	344.09738	891.69019	-229.85616	376.64251	896.35626	-32.60217	346.13712	898.14856	-195.22629	
